<svg xmlns="http://www.w3.org/2000/svg" id="Layer_1" viewBox="0 0 50 50"><style>.st0,.st1{fill-rule:evenodd;clip-rule:evenodd;fill:#292929}.st1{fill:#981b1e}</style><path d="M1.6 48.4h5.7L17.6 38l-3.1-2.7z" class="st0"/><path id="Ellipse_1_copy_48_2_" d="M18.1 30.8c-2 0-3.6 1.6-3.6 3.6s1.6 3.6 3.6 3.6 3.6-1.6 3.6-3.6-1.6-3.6-3.6-3.6z" class="st1"/><path d="M32.6 17.2l2.6 3.1L47.8 7.4h-5.6z" class="st0"/><path id="Ellipse_1_copy_48_4_" d="M31.6 17.2c-2 0-3.6 1.6-3.6 3.6s1.6 3.6 3.6 3.6 3.6-1.6 3.6-3.6-1.6-3.6-3.6-3.6z" class="st1"/><path d="M1.6 7.4h5.7l40.5 41h-5.6z" class="st0"/><path d="M1.6 5.2h13.3l6.9 9.1s2.5 3.4 5.7 0c0 0 5.9-7.6 6.9-9.1h13.5V1H32.3l-7.1 9.1s-.7 1.5-1.7 0L17.1 1H1.4v4.2h.2z" class="st1"/></svg>
